<?xml version="1.0" encoding="UTF-8" standalone="no"?>
<svg
   xmlns:dc="http://purl.org/dc/elements/1.1/"
   xmlns:cc="http://creativecommons.org/ns#"
   xmlns:rdf="http://www.w3.org/1999/02/22-rdf-syntax-ns#"
   xmlns:svg="http://www.w3.org/2000/svg"
   xmlns="http://www.w3.org/2000/svg"
   viewBox="0 0 223.90953 223.98473"
   height="223.98473"
   width="223.90953"
   version="1.1"
   id="svg2">
  <metadata
     id="metadata8">
    <rdf:RDF>
      <cc:Work
         rdf:about="">
        <dc:format>image/svg+xml</dc:format>
        <dc:type
           rdf:resource="http://purl.org/dc/dcmitype/StillImage" />
        <dc:title></dc:title>
      </cc:Work>
    </rdf:RDF>
  </metadata>
  <defs
     id="defs6" />
  <path
     id="path3338"
     d="M 95.452785,223.19513 C 50.285139,216.01705 14.971951,183.99519 3.016161,139.37394 c -4.021548,-15.00917 -4.021548,-39.823754 0,-54.832924 10.91465,-40.735521 40.769753,-70.61387 81.438604,-81.5020167 15.13482,-4.051999 39.865175,-4.051999 54.999995,0 40.66885,10.8881467 70.52396,40.7664957 81.43861,81.5020167 4.02154,15.00917 4.02154,39.823754 0,54.832924 -10.88868,40.63859 -40.79606,70.70702 -80.85096,81.28633 -11.39859,3.0106 -33.63996,4.27498 -44.589625,2.53486 z m 45.028235,-7.4313 c 29.75033,-8.499 53.99721,-28.83452 68.1924,-57.19199 7.90698,-15.79562 10.0992,-25.91416 10.0992,-46.61436 0,-15.023524 -0.47816,-19.791564 -2.79432,-27.864363 C 207.24125,53.640931 187.15221,29.546942 158.56913,15.238823 142.7735,7.3318523 132.65496,5.1396303 111.95476,5.1396303 c -15.023515,0 -19.791555,0.478154 -27.864354,2.794324 C 47.083967,18.551489 18.548777,47.086679 7.931242,84.093117 c -4.031177,14.050299 -4.031177,41.678423 0,55.728723 11.672069,40.68191 44.866924,70.84955 86.312093,78.44083 10.008575,1.83321 35.988285,0.42918 46.237685,-2.49884 z m -5.10816,-11.34864 c -20.77905,-5.19467 -32.41471,-24.58455 -30.60418,-50.9994 0.82701,-12.06589 5.0049,-24.27913 12.94171,-37.83261 9.97942,-17.041544 22.84499,-28.101154 39.03424,-33.554911 10.71303,-3.608959 19.8877,-3.302203 32.49656,1.086527 5.72629,1.993131 10.579,3.813731 10.78379,4.04578 0.2048,0.23204 -0.67402,5.4844 -1.95292,11.6719 -1.27892,6.187504 -2.33474,13.640634 -2.34629,16.562504 -0.0206,5.2341 -0.0856,5.3125 -4.396,5.3125 l -4.375,0 0,-10.68708 c 0,-12.187454 -1.79844,-16.989534 -7.45909,-19.916764 -8.05985,-4.167914 -21.64331,-0.74794 -31.53921,7.94077 -10.82973,9.508634 -21.31683,32.063934 -23.32334,50.163074 -3.03401,27.36737 6.72823,46.25 23.91106,46.25 6.58789,0 16.59662,-5.76365 23.11017,-13.30826 6.54697,-7.58334 10.63344,-8.58625 11.30687,-2.77498 0.29374,2.53473 -1.19878,4.99863 -6.48986,10.71361 -11.59901,12.52833 -27.93094,18.61918 -41.09851,15.32734 z M 18.204765,148.59 c -4.924331,-1.75991 -6.579909,-8.62405 -2.954483,-12.24947 1.66959,-1.66959 3.513,-1.88836 10.030472,-1.1904 7.308253,0.78265 8.38453,0.57821 12.699885,-2.41233 7.020985,-4.86555 16.893489,-17.51475 37.874021,-48.5263 18.783605,-27.76425 28.71367,-41.139208 37.18056,-50.07906 l 4.45139,-4.700037 -6.20342,0.741932 c -19.052305,2.278662 -24.95495,4.40652 -29.632321,10.68223 -2.644158,3.547711 -2.990359,6.651286 -1.55085,13.902831 1.176471,5.92649 -0.759803,8.44808 -6.487093,8.44808 -3.728556,0 -4.526955,-0.577337 -6.141232,-4.440849 -3.660912,-8.761793 1.7593,-21.84412 11.648851,-28.115888 8.26883,-5.243937 15.64679,-7.334352 32.365105,-9.170084 8.76888,-0.962855 16.58216,-2.529913 19.09083,-3.828923 l 4.24672,-2.198986 -0.84804,4.814865 c -1.90862,10.836499 -5.91748,38.735699 -8.77445,61.064865 l -3.03876,23.750004 -6.83174,11.82936 c -5.37139,9.30074 -7.5845,12.03069 -10.35326,12.77118 -1.93684,0.51798 -3.75992,0.7034 -4.05129,0.41202 -0.29138,-0.29137 0.62521,-5.19465 2.03684,-10.89616 1.41163,-5.70153 2.93682,-12.75702 3.38931,-15.6789 l 0.82271,-5.312504 -14.797385,0.002 -14.79737,0.002 -3.743566,5.935274 c -7.115879,11.28192 -21.486193,29.70492 -27.372683,35.09228 -9.294149,8.50607 -20.368447,12.17043 -28.258751,9.3505 z M 108.83731,82.269976 c 1.05967,-8.007626 5.36586,-34.396537 6.31766,-38.715589 0.62174,-2.82118 0.11175,-2.417631 -2.72096,2.153089 -1.91735,3.09375 -8.73366,13.078679 -15.147365,22.18873 -6.41371,9.110051 -11.984851,17.406926 -12.380319,18.4375 -0.607984,1.58438 1.123795,1.87377 11.213109,1.87377 l 11.932155,0 0.78573,-5.9375 z m 21.86745,46.801414 c 0,-2.48126 2.79168,-5.51246 5.9375,-6.44692 2.25289,-0.66923 2.8125,-0.34159 2.8125,1.64653 0,4.63537 -1.43657,6.43648 -5.13373,6.43648 -2.14642,0 -3.61627,-0.66499 -3.61627,-1.63609 z"
     style="fill:#000000" />
</svg>
